# xmcd
#
# Track frame offsets:
# 150
# 20156
# 37418
# 52788
# 72208
# 89038
# 108733
# 124875
# 143165
# 153499
# 163741
# 175313
# 188327
# 204738
# 221985
# 238480
# 259600
# 277070
# 297187
# 316691
# 334746
#
# Disc length: 4667 seconds
#
#
# Revision: 3
# Processed by: cddbd v1.5.1PL2 Copyright (c) Steve Scherf et al.
# Submitted via: FreeRIP 2.945 
#
DISCID=50123915
DTITLE=BACKSTREET BOYS - ORIGINAL BEST COLLECTIONS
DYEAR=1900
DGENRE=
TTITLE0=
TTITLE1=SHAPE OF MY HEART
TTITLE2=THE CALL
TTITLE3=
TTITLE4=
TTITLE5=
TTITLE6=
TTITLE7=
TTITLE8=
TTITLE9=
TTITLE10=
TTITLE11=
TTITLE12=
TTITLE13=
TTITLE14=
TTITLE15=
TTITLE16=
TTITLE17=
TTITLE18=
TTITLE19=
TTITLE20=
EXTD=
EXTT0=
EXTT1=
EXTT2=
EXTT3=
EXTT4=
EXTT5=
EXTT6=
EXTT7=
EXTT8=
EXTT9=
EXTT10=
EXTT11=
EXTT12=
EXTT13=
EXTT14=
EXTT15=
EXTT16=
EXTT17=
EXTT18=
EXTT19=
EXTT20=
PLAYORDER=
